# Blender 4.5.3 LTS
# www.blender.org
mtllib smooth_bunny.mtl
o Box001
v -0.014200 0.591900 -0.421500
v 0.239800 0.673200 -0.390300
v 0.095200 0.579600 -0.536300
v 0.248700 0.078400 0.364300
v 0.376300 0.142900 0.295900
v 0.374500 0.249500 0.366400
v 0.014200 1.610300 -0.538400
v -0.102100 1.527900 -0.446900
v -0.009400 1.599200 -0.317400
v -0.242900 0.905300 0.121900
v -0.265700 0.708500 0.273600
v -0.045200 0.892600 0.162300
v -0.136800 0.396100 -0.362100
v -0.368700 0.652300 -0.443900
v 0.397600 0.565100 -0.424900
v 0.506500 0.444200 -0.376900
v -0.745300 0.787100 0.225100
v -0.793400 0.887100 0.254500
v -0.790900 0.825500 -0.022900
v 0.493800 0.254400 -0.349600
v 0.659000 0.299200 -0.104400
v 0.528300 0.118500 -0.166200
v -0.326900 1.538700 -0.800700
v -0.177900 1.380500 -0.818900
v -0.358400 1.284500 -0.782200
v 0.394000 0.136900 -0.329400
v 0.296800 0.364300 -0.463300
v -0.342000 0.222100 0.163200
v -0.301700 0.077000 0.021000
v -0.342500 0.155200 0.231700
v 0.123000 0.175600 -0.440500
v -0.024100 0.412300 -0.537300
v -0.479800 0.101700 -0.028600
v -0.459400 0.002600 0.052300
v -0.296700 0.146400 -0.232800
v 0.025400 0.149900 -0.397300
v -0.250600 0.056700 -0.403400
v -0.380500 1.107700 -0.295800
v -0.307700 1.122800 -0.250300
v -0.282700 0.951400 -0.301300
v 0.792400 0.399100 0.005500
v 0.777600 0.309300 0.195800
v 0.810900 0.272900 0.021200
v -0.209300 1.611500 -0.756000
v -0.402600 1.161800 -0.435200
v -0.380500 1.261300 -0.356200
v -0.810900 0.939600 -0.035500
v -0.707800 0.864900 -0.240400
v -0.296600 1.269400 -0.082600
v -0.113300 1.375600 -0.177800
v -0.346800 1.316600 -0.095500
v -0.154500 0.032200 0.414800
v 0.019200 0.154600 0.380300
v -0.184900 0.182600 0.308300
v -0.019000 1.342000 -0.449900
v 0.092900 1.324500 -0.438700
v 0.435800 0.883600 -0.319200
v 0.571100 0.697000 -0.283300
v 0.414600 0.731300 -0.339000
v 0.704800 0.524300 0.162800
v 0.511600 0.180100 0.295300
v 0.676000 0.379200 0.166000
v 0.120400 1.585500 -0.492900
v 0.077900 1.510300 -0.600600
v 0.374700 0.679000 0.390100
v 0.625100 0.696500 0.246000
v 0.483800 0.826600 0.284800
v 0.689500 0.750500 -0.107700
v 0.709100 0.400600 -0.001500
v -0.760200 0.620400 -0.002700
v -0.686900 0.542600 0.147600
v -0.682000 0.751400 0.119200
v 0.278700 1.052500 0.020300
v 0.504000 0.965900 -0.049800
v 0.309400 1.007300 -0.163500
v -0.693800 0.467900 -0.158600
v -0.559600 0.281300 0.085400
v -0.604200 0.390800 0.173800
v -0.254800 1.147300 -0.148600
v -0.199300 0.996400 -0.085800
v -0.559000 1.166200 -0.311600
v -0.383600 1.185700 -0.686300
v -0.713000 0.742100 -0.108200
v -0.534500 0.803300 -0.308000
v -0.575500 0.597300 -0.357700
v -0.491000 1.093000 -0.327800
v -0.424400 1.577000 -0.696900
v -0.491300 1.278300 -0.190300
v -0.307400 1.425700 -0.215900
v -0.515700 1.329900 -0.020300
v -0.356800 1.283400 -0.267300
v -0.776500 1.219500 -0.052300
v -0.664300 1.249900 0.112700
v -0.752800 1.082700 0.226500
v -0.742700 1.096200 -0.121500
v 0.660100 0.545400 -0.245500
v -0.398100 1.251900 0.150100
v -0.554200 1.169800 0.269600
v -0.565900 0.298600 -0.163500
v -0.208100 0.357300 0.319800
v -0.319000 0.002900 -0.221600
v 0.369900 0.004100 -0.335800
v 0.371300 0.004400 -0.136900
v -0.116600 0.003500 -0.419200
v 0.265600 1.004400 0.208500
v 0.185700 0.889100 0.325500
v -0.549400 0.004400 0.200600
v -0.519500 1.476000 -0.636700
v 0.037200 0.817200 -0.389500
v -0.359000 0.247300 -0.205100
v -0.523200 0.753500 0.228100
v -0.478000 0.593600 0.315300
v 0.663100 0.003000 0.113800
v 0.556400 0.003800 0.245500
v -0.534100 0.038200 -0.162600
v 0.563800 0.891800 0.155900
v 0.188100 0.380700 0.480500
v 0.490700 0.484500 0.370900
v 0.285500 0.553400 0.458600
v -0.036700 0.551800 0.455700
v 0.015100 0.330500 0.478700
v 0.139900 0.617100 0.463700
v -0.014000 0.954300 -0.161500
v -0.592300 1.242400 -0.269700
v -0.432000 0.044300 0.303700
v -0.516300 1.340800 -0.495500
v -0.669800 0.987000 0.352700
v -0.160300 1.328100 -0.720400
v -0.192000 0.860300 -0.374800
v 0.201500 0.879700 -0.315000
v -0.134000 1.487200 -0.685800
v -0.372800 1.127700 0.114100
v -0.539800 0.865800 0.368100
v -0.430100 0.898800 0.247900
v 0.604500 0.003200 -0.057000
v -0.099300 0.642200 0.333300
v -0.474000 0.462700 0.289600
v 0.165900 0.413400 -0.543400
v 0.747100 0.250200 -0.094600
v -0.002000 1.478000 -0.599900
v 0.244500 0.003500 0.341800
v -0.420900 0.410500 -0.391700
v -0.262100 0.003400 0.281800
v -0.356300 0.131600 -0.038500
v -0.403500 1.335000 -0.655600
v -0.293500 1.446500 -0.575200
v -0.484900 1.428800 -0.450300
v 0.080400 1.352500 -0.363200
vn -0.2573 0.2973 -0.9195
vn 0.1550 0.4680 -0.8700
vn -0.1024 0.5452 -0.8320
vn 0.2782 -0.3317 0.9014
vn 0.3434 -0.3049 0.8883
vn 0.3751 -0.3089 0.8740
vn -0.2027 0.8519 -0.4828
vn -0.7685 0.4360 -0.4683
vn 0.2480 0.8049 0.5392
vn 0.2853 0.6128 0.7369
vn -0.0730 0.4281 0.9008
vn -0.2354 0.8167 0.5269
vn -0.4079 -0.2889 -0.8661
vn -0.1736 0.1087 -0.9788
vn 0.3625 0.2195 -0.9058
vn 0.5938 -0.0635 -0.8021
vn -0.5458 -0.7255 0.4191
vn -0.8564 -0.1603 0.4909
vn -0.9046 -0.4193 -0.0771
vn 0.6094 -0.3438 -0.7145
vn 0.6502 -0.0767 -0.7559
vn 0.5808 -0.5090 -0.6354
vn -0.3362 0.3375 -0.8793
vn 0.5378 -0.2152 -0.8151
vn -0.4583 -0.3719 -0.8072
vn 0.5105 -0.4387 -0.7395
vn 0.3386 -0.1929 -0.9210
vn -0.7794 -0.4222 0.4629
vn -0.8514 0.4149 0.3208
vn -0.6221 0.5881 0.5168
vn 0.0550 -0.6300 -0.7746
vn -0.5085 -0.0810 -0.8572
vn -0.6012 0.7370 0.3090
vn -0.7439 -0.5700 0.3488
vn -0.6920 0.1931 -0.6956
vn -0.1828 -0.1966 -0.9633
vn -0.6016 -0.0075 -0.7988
vn 0.5761 -0.0584 -0.8153
vn 0.5803 -0.1412 -0.8021
vn 0.2301 0.5152 -0.8256
vn 0.6390 0.7287 -0.2461
vn 0.6459 0.2070 0.7348
vn 0.9755 -0.1817 -0.1243
vn 0.4167 0.8848 -0.2087
vn 0.7357 -0.6773 -0.0035
vn 0.9651 0.1130 0.2364
vn -0.9936 0.0411 -0.1051
vn -0.6837 -0.2191 -0.6961
vn 0.6063 0.3710 0.7033
vn 0.5065 0.1072 0.8556
vn 0.0297 0.7696 0.6378
vn -0.3438 -0.3444 0.8736
vn -0.0995 -0.2048 0.9737
vn -0.5597 0.0828 0.8246
vn -0.2851 -0.5535 -0.7825
vn 0.7007 -0.6599 -0.2712
vn 0.3289 0.5334 -0.7793
vn 0.6131 0.2817 -0.7381
vn 0.2377 0.2778 -0.9308
vn 0.9248 0.0232 0.3798
vn 0.4331 -0.2098 0.8766
vn 0.6645 0.2110 0.7169
vn 0.8329 0.5528 -0.0285
vn 0.4986 0.0372 -0.8660
vn 0.3079 0.3498 0.8848
vn 0.7589 0.2733 0.5910
vn 0.4146 0.5027 0.7586
vn 0.9000 0.3832 -0.2078
vn 0.7910 0.5277 -0.3094
vn -0.9978 -0.0246 0.0609
vn -0.8167 -0.1661 0.5527
vn -0.7479 -0.5296 0.4003
vn 0.0226 0.9984 0.0512
vn 0.5493 0.8290 -0.1048
vn 0.0900 0.9123 -0.3996
vn -0.8710 -0.3620 -0.3321
vn -0.5735 -0.7872 0.2269
vn -0.6830 -0.4796 0.5509
vn 0.9729 -0.1692 0.1574
vn 0.6022 0.7945 0.0784
vn -0.7591 -0.1434 -0.6350
vn -0.2486 -0.8392 -0.4837
vn -0.9122 -0.1982 -0.3585
vn -0.4287 0.1243 -0.8949
vn -0.6474 -0.0246 -0.7618
vn -0.1830 -0.4230 -0.8875
vn -0.4763 0.8733 -0.1023
vn -0.2844 0.9585 -0.0222
vn -0.5986 0.7973 0.0775
vn -0.0928 0.9939 0.0603
vn -0.2382 0.4493 -0.8610
vn -0.8683 0.4727 -0.1506
vn -0.4099 0.8191 0.4013
vn -0.7884 0.4223 0.4473
vn -0.8907 0.1330 -0.4348
vn 0.8324 -0.0156 -0.5539
vn 0.5395 0.5618 0.6271
vn 0.1232 0.5814 0.8043
vn -0.5632 -0.7616 -0.3206
vn -0.4843 -0.1349 0.8644
vn -0.3817 -0.8109 -0.4436
vn 0.5641 -0.6243 -0.5404
vn 0.2146 -0.9588 -0.1862
vn -0.0578 -0.6376 -0.7682
vn 0.0243 0.8783 0.4774
vn -0.1174 0.6246 0.7721
vn -0.9661 -0.2527 0.0535
vn -0.9357 0.1991 -0.2912
vn 0.0933 0.5066 -0.8571
vn -0.5173 -0.6626 -0.5416
vn -0.1133 -0.2041 0.9724
vn -0.3124 0.1221 0.9421
vn 0.5830 -0.8005 0.1389
vn 0.3283 -0.7106 0.6223
vn -0.8875 -0.1236 -0.4440
vn 0.6559 0.6702 0.3473
vn 0.1678 -0.1311 0.9771
vn 0.5350 -0.0300 0.8443
vn 0.2659 0.1341 0.9546
vn -0.4512 0.2561 0.8549
vn -0.2500 -0.2012 0.9471
vn -0.0173 0.3123 0.9498
vn 0.0069 0.9731 -0.2304
vn -0.8160 0.4984 -0.2929
vn -0.3834 -0.0223 0.9233
vn -0.9498 -0.0866 -0.3006
vn -0.3357 0.1648 0.9274
vn 0.8348 -0.5463 -0.0678
vn -0.0328 0.5098 -0.8596
vn 0.0206 0.6607 -0.7504
vn 0.9094 0.3209 0.2645
vn 0.7262 0.2288 0.6483
vn 0.2629 -0.3028 0.9161
vn 0.6590 -0.0911 0.7466
vn 0.4236 -0.7932 -0.4375
vn -0.4363 0.4186 0.7965
vn -0.3893 -0.3327 0.8589
vn 0.2621 -0.3301 -0.9068
vn 0.5755 -0.1060 -0.8109
vn -0.3923 -0.2087 -0.8959
vn 0.1653 -0.7524 0.6376
vn -0.2556 -0.4859 -0.8358
vn -0.2523 -0.7667 0.5904
vn -0.8579 0.4440 0.2584
vn -0.8535 -0.1340 -0.5035
vn 0.2936 0.7052 0.6453
vn -0.4331 0.8031 0.4092
vn 0.8297 -0.2107 0.5169
s 1
f 1//1 2//2 3//3
f 4//4 5//5 6//6
f 7//7 8//8 9//9
f 10//10 11//11 12//12
f 1//1 13//13 14//14
f 15//15 16//16 3//3
f 17//17 18//18 19//19
f 20//20 21//21 22//22
f 23//23 24//24 25//25
f 26//26 27//27 20//20
f 28//28 29//29 30//30
f 27//27 31//31 32//32
f 33//33 34//34 29//29
f 35//35 36//36 37//37
f 38//38 39//39 40//40
f 41//41 42//42 43//43
f 44//44 24//24 23//23
f 38//38 45//45 46//46
f 47//47 48//48 19//19
f 49//49 50//50 51//51
f 52//52 53//53 54//54
f 55//55 56//56 39//39
f 57//57 58//58 59//59
f 60//60 61//61 62//62
f 63//63 56//56 64//64
f 62//62 42//42 41//41
f 65//65 66//66 67//67
f 68//68 60//60 69//69
f 70//70 71//71 72//72
f 73//73 74//74 75//75
f 76//76 77//77 78//78
f 57//57 68//68 58//58
f 79//79 80//80 39//39
f 81//81 25//25 82//82
f 83//83 48//48 84//84
f 14//14 85//85 84//84
f 45//45 38//38 86//86
f 87//87 44//44 23//23
f 88//88 51//51 89//89
f 90//90 51//51 88//88
f 46//46 88//88 91//91
f 92//92 93//93 90//90
f 47//47 94//94 95//95
f 68//68 69//69 96//96
f 97//97 93//93 98//98
f 20//20 22//22 26//26
f 76//76 85//85 99//99
f 40//40 14//14 84//84
f 100//100 28//28 54//54
f 101//101 35//35 37//37
f 102//102 103//103 104//104
f 83//83 76//76 70//70
f 75//75 74//74 57//57
f 98//98 93//93 94//94
f 105//105 73//73 12//12
f 91//91 38//38 46//46
f 106//106 67//67 105//105
f 104//104 103//103 107//107
f 23//23 108//108 87//87
f 109//109 2//2 1//1
f 13//13 36//36 110//110
f 111//111 71//71 112//112
f 91//91 55//55 39//39
f 113//113 42//42 114//114
f 68//68 57//57 74//74
f 59//59 58//58 15//15
f 115//115 101//101 34//34
f 104//104 37//37 36//36
f 102//102 26//26 103//103
f 106//106 105//105 12//12
f 68//68 74//74 116//116
f 117//117 118//118 119//119
f 120//120 121//121 122//122
f 3//3 32//32 1//1
f 83//83 85//85 76//76
f 36//36 32//32 31//31
f 123//123 73//73 75//75
f 70//70 72//72 83//83
f 32//32 36//36 13//13
f 7//7 63//63 64//64
f 37//37 104//104 101//101
f 124//124 95//95 92//92
f 125//125 30//30 107//107
f 126//126 81//81 124//124
f 18//18 94//94 19//19
f 111//111 11//11 10//10
f 51//51 9//9 89//89
f 94//94 127//127 98//98
f 15//15 3//3 2//2
f 86//86 38//38 40//40
f 34//34 33//33 115//115
f 46//46 45//45 128//128
f 40//40 129//129 14//14
f 107//107 29//29 34//34
f 130//130 123//123 75//75
f 128//128 131//131 46//46
f 132//132 133//133 134//134
f 79//79 10//10 80//80
f 124//124 81//81 95//95
f 132//132 10//10 49//49
f 121//121 4//4 117//117
f 48//48 83//83 19//19
f 68//68 96//96 58//58
f 114//114 107//107 135//135
f 103//103 22//22 135//135
f 66//66 118//118 60//60
f 11//11 111//111 112//112
f 14//14 109//109 1//1
f 12//12 136//136 106//106
f 137//137 28//28 100//100
f 8//8 55//55 91//91
f 138//138 32//32 3//3
f 24//24 82//82 25//25
f 44//44 131//131 24//24
f 124//124 92//92 88//88
f 41//41 139//139 21//21
f 89//89 8//8 91//91
f 65//65 67//67 122//122
f 94//94 18//18 127//127
f 6//6 61//61 118//118
f 132//132 134//134 10//10
f 67//67 106//106 122//122
f 56//56 55//55 140//140
f 109//109 123//123 130//130
f 106//106 136//136 120//120
f 34//34 104//104 107//107
f 81//81 48//48 95//95
f 137//137 112//112 78//78
f 49//49 10//10 79//79
f 62//62 41//41 69//69
f 41//41 43//43 139//139
f 136//136 100//100 120//120
f 123//123 109//109 40//40
f 141//141 107//107 114//114
f 142//142 13//13 110//110
f 100//100 136//136 11//11
f 101//101 115//115 35//35
f 114//114 42//42 62//62
f 138//138 27//27 32//32
f 8//8 89//89 9//9
f 63//63 7//7 9//9
f 86//86 84//84 81//81
f 17//17 133//133 127//127
f 7//7 64//64 140//140
f 121//121 120//120 100//100
f 132//132 98//98 133//133
f 89//89 91//91 88//88
f 96//96 69//69 21//21
f 50//50 9//9 51//51
f 21//21 69//69 41//41
f 26//26 102//102 36//36
f 143//143 54//54 30//30
f 42//42 113//113 43//43
f 28//28 144//144 29//29
f 73//73 123//123 12//12
f 52//52 143//143 141//141
f 103//103 135//135 107//107
f 92//92 95//95 94//94
f 1//1 32//32 13//13
f 108//108 23//23 145//145
f 92//92 90//90 88//88
f 11//11 136//136 12//12
f 109//109 59//59 2//2
f 146//146 44//44 87//87
f 141//141 4//4 53//53
f 54//54 28//28 30//30
f 115//115 33//33 144//144
f 98//98 132//132 97//97
f 16//16 20//20 27//27
f 122//122 117//117 119//119
f 106//106 120//120 122//122
f 57//57 59//59 130//130
f 142//142 99//99 85//85
f 52//52 141//141 53//53
f 132//132 49//49 97//97
f 108//108 145//145 126//126
f 101//101 104//104 34//34
f 116//116 67//67 66//66
f 137//137 100//100 112//112
f 110//110 35//35 144//144
f 5//5 141//141 114//114
f 35//35 110//110 36//36
f 6//6 5//5 61//61
f 40//40 80//80 123//123
f 116//116 73//73 105//105
f 30//30 125//125 143//143
f 16//16 15//15 58//58
f 70//70 78//78 71//71
f 111//111 10//10 134//134
f 73//73 116//116 74//74
f 86//86 40//40 84//84
f 60//60 62//62 69//69
f 72//72 71//71 111//111
f 14//14 142//142 85//85
f 131//131 128//128 24//24
f 100//100 11//11 112//112
f 21//21 16//16 96//96
f 82//82 86//86 81//81
f 76//76 99//99 77//77
f 70//70 76//76 78//78
f 146//146 131//131 44//44
f 49//49 90//90 97//97
f 45//45 86//86 82//82
f 21//21 20//20 16//16
f 145//145 25//25 81//81
f 116//116 66//66 68//68
f 29//29 107//107 30//30
f 31//31 26//26 36//36
f 67//67 116//116 105//105
f 111//111 134//134 133//133
f 84//84 85//85 83//83
f 99//99 142//142 110//110
f 140//140 64//64 56//56
f 50//50 63//63 9//9
f 147//147 126//126 124//124
f 139//139 135//135 21//21
f 78//78 77//77 28//28
f 54//54 143//143 52//52
f 114//114 62//62 61//61
f 49//49 79//79 50//50
f 108//108 126//126 147//147
f 56//56 79//79 39//39
f 113//113 114//114 135//135
f 122//122 121//121 117//117
f 72//72 19//19 83//83
f 125//125 107//107 143//143
f 23//23 25//25 145//145
f 82//82 128//128 45//45
f 29//29 144//144 33//33
f 26//26 22//22 103//103
f 139//139 43//43 135//135
f 99//99 110//110 77//77
f 60//60 118//118 61//61
f 147//147 124//124 88//88
f 123//123 80//80 12//12
f 54//54 53//53 121//121
f 142//142 14//14 13//13
f 130//130 59//59 109//109
f 75//75 57//57 130//130
f 3//3 27//27 138//138
f 55//55 8//8 140//140
f 115//115 144//144 35//35
f 128//128 82//82 24//24
f 121//121 100//100 54//54
f 92//92 94//94 93//93
f 18//18 17//17 127//127
f 65//65 122//122 119//119
f 16//16 58//58 96//96
f 145//145 81//81 126//126
f 118//118 117//117 6//6
f 50//50 79//79 148//148
f 88//88 46//46 146//146
f 80//80 10//10 12//12
f 148//148 63//63 50//50
f 21//21 135//135 22//22
f 94//94 47//47 19//19
f 110//110 28//28 77//77
f 66//66 60//60 68//68
f 147//147 87//87 108//108
f 46//46 131//131 146//146
f 111//111 17//17 72//72
f 27//27 26//26 31//31
f 121//121 53//53 4//4
f 90//90 93//93 97//97
f 78//78 28//28 137//137
f 65//65 118//118 66//66
f 17//17 19//19 72//72
f 65//65 119//119 118//118
f 43//43 113//113 135//135
f 81//81 84//84 48//48
f 16//16 27//27 3//3
f 109//109 14//14 129//129
f 51//51 90//90 49//49
f 111//111 133//133 17//17
f 144//144 28//28 110//110
f 129//129 40//40 109//109
f 36//36 102//102 104//104
f 91//91 39//39 38//38
f 95//95 48//48 47//47
f 4//4 141//141 5//5
f 71//71 78//78 112//112
f 133//133 98//98 127//127
f 147//147 88//88 146//146
f 143//143 107//107 141//141
f 59//59 15//15 2//2
f 4//4 6//6 117//117
f 147//147 146//146 87//87
f 140//140 8//8 7//7
f 5//5 114//114 61//61
f 39//39 80//80 40//40
f 148//148 79//79 56//56
f 63//63 148//148 56//56
